<?xml version="1.0" encoding="utf-8" standalone="no"?><!DOCTYPE svg PUBLIC "-//W3C//DTD SVG 20010904//EN" "http://www.w3.org/TR/2001/REC-SVG-20010904/DTD/svg10.dtd"><svg xmlns="http://www.w3.org/2000/svg" width="596" height="512" xmlns:xlink="http://www.w3.org/1999/xlink"><source><![CDATA[Mc->Quarkmc:连接到Quarkmc
Quarkmc-->Mc:连接成功
Mc->Quarkmc:收到消息a
Quarkmc->Plugin:收到消息a
Note right of Plugin: 插件a注册了指令a
Plugin->插件a:收到消息a
Note right of 插件a: 执行指令
插件a-->Plugin:发送消息b
Plugin-->Quarkmc:发送消息b
Quarkmc-->Mc:发送消息b]]></source><desc></desc><defs><marker viewBox="0 0 5 5" markerWidth="5" markerHeight="5" orient="auto" refX="5" refY="2.5" id="markerArrowBlock"><path d="M 0 0 L 5 2.5 L 0 5 z"></path></marker><marker viewBox="0 0 9.6 16" markerWidth="4" markerHeight="16" orient="auto" refX="9.6" refY="8" id="markerArrowOpen"><path d="M 9.6,8 1.92,16 0,13.7 5.76,8 0,2.286 1.92,0 9.6,8 z"></path></marker></defs><g class="title"></g><g class="actor"><rect x="10" y="20" width="36" height="36" stroke="#000000" fill="#ffffff" style="stroke-width: 2;"></rect><text x="20" y="44" style="font-size: 16px; font-family: &quot;Andale Mono&quot;, monospace;"><tspan x="20">Mc</tspan></text></g><g class="actor"><rect x="10" y="456" width="36" height="36" stroke="#000000" fill="#ffffff" style="stroke-width: 2;"></rect><text x="20" y="480" style="font-size: 16px; font-family: &quot;Andale Mono&quot;, monospace;"><tspan x="20">Mc</tspan></text></g><line x1="28" x2="28" y1="56" y2="456" stroke="#000000" fill="none" style="stroke-width: 2;"></line><g class="actor"><rect x="114" y="20" width="76" height="36" stroke="#000000" fill="#ffffff" style="stroke-width: 2;"></rect><text x="124" y="44" style="font-size: 16px; font-family: &quot;Andale Mono&quot;, monospace;"><tspan x="124">Quarkmc</tspan></text></g><g class="actor"><rect x="114" y="456" width="76" height="36" stroke="#000000" fill="#ffffff" style="stroke-width: 2;"></rect><text x="124" y="480" style="font-size: 16px; font-family: &quot;Andale Mono&quot;, monospace;"><tspan x="124">Quarkmc</tspan></text></g><line x1="152" x2="152" y1="56" y2="456" stroke="#000000" fill="none" style="stroke-width: 2;"></line><g class="actor"><rect x="210" y="20" width="68" height="36" stroke="#000000" fill="#ffffff" style="stroke-width: 2;"></rect><text x="220" y="44" style="font-size: 16px; font-family: &quot;Andale Mono&quot;, monospace;"><tspan x="220">Plugin</tspan></text></g><g class="actor"><rect x="210" y="456" width="68" height="36" stroke="#000000" fill="#ffffff" style="stroke-width: 2;"></rect><text x="220" y="480" style="font-size: 16px; font-family: &quot;Andale Mono&quot;, monospace;"><tspan x="220">Plugin</tspan></text></g><line x1="244" x2="244" y1="56" y2="456" stroke="#000000" fill="none" style="stroke-width: 2;"></line><g class="actor"><rect x="392" y="20" width="60" height="36" stroke="#000000" fill="#ffffff" style="stroke-width: 2;"></rect><text x="402" y="44" style="font-size: 16px; font-family: &quot;Andale Mono&quot;, monospace;"><tspan x="402">插件a</tspan></text></g><g class="actor"><rect x="392" y="456" width="60" height="36" stroke="#000000" fill="#ffffff" style="stroke-width: 2;"></rect><text x="402" y="480" style="font-size: 16px; font-family: &quot;Andale Mono&quot;, monospace;"><tspan x="402">插件a</tspan></text></g><line x1="422" x2="422" y1="56" y2="456" stroke="#000000" fill="none" style="stroke-width: 2;"></line><g class="signal"><text x="38" y="87" style="font-size: 16px; font-family: &quot;Andale Mono&quot;, monospace;"><tspan x="38">连接到Quarkmc</tspan></text><line x1="28" x2="152" y1="92" y2="92" stroke="#000000" fill="none" style="stroke-width: 2; marker-end: url(&quot;#markerArrowBlock&quot;);"></line></g><g class="signal"><text x="58" y="123" style="font-size: 16px; font-family: &quot;Andale Mono&quot;, monospace;"><tspan x="58">连接成功</tspan></text><line x1="152" x2="28" y1="128" y2="128" stroke="#000000" fill="none" style="stroke-width: 2; stroke-dasharray: 6, 2; marker-end: url(&quot;#markerArrowBlock&quot;);"></line></g><g class="signal"><text x="54" y="159" style="font-size: 16px; font-family: &quot;Andale Mono&quot;, monospace;"><tspan x="54">收到消息a</tspan></text><line x1="28" x2="152" y1="164" y2="164" stroke="#000000" fill="none" style="stroke-width: 2; marker-end: url(&quot;#markerArrowBlock&quot;);"></line></g><g class="signal"><text x="162" y="195" style="font-size: 16px; font-family: &quot;Andale Mono&quot;, monospace;"><tspan x="162">收到消息a</tspan></text><line x1="152" x2="244" y1="200" y2="200" stroke="#000000" fill="none" style="stroke-width: 2; marker-end: url(&quot;#markerArrowBlock&quot;);"></line></g><g class="note"><rect x="264" y="220" width="138" height="26" stroke="#000000" fill="#ffffff" style="stroke-width: 2;"></rect><text x="269" y="239" style="font-size: 16px; font-family: &quot;Andale Mono&quot;, monospace;"><tspan x="269">插件a注册了指令a</tspan></text></g><g class="signal"><text x="297" y="277" style="font-size: 16px; font-family: &quot;Andale Mono&quot;, monospace;"><tspan x="297">收到消息a</tspan></text><line x1="244" x2="422" y1="282" y2="282" stroke="#000000" fill="none" style="stroke-width: 2; marker-end: url(&quot;#markerArrowBlock&quot;);"></line></g><g class="note"><rect x="442" y="302" width="74" height="26" stroke="#000000" fill="#ffffff" style="stroke-width: 2;"></rect><text x="447" y="321" style="font-size: 16px; font-family: &quot;Andale Mono&quot;, monospace;"><tspan x="447">执行指令</tspan></text></g><g class="signal"><text x="297" y="359" style="font-size: 16px; font-family: &quot;Andale Mono&quot;, monospace;"><tspan x="297">发送消息b</tspan></text><line x1="422" x2="244" y1="364" y2="364" stroke="#000000" fill="none" style="stroke-width: 2; stroke-dasharray: 6, 2; marker-end: url(&quot;#markerArrowBlock&quot;);"></line></g><g class="signal"><text x="162" y="395" style="font-size: 16px; font-family: &quot;Andale Mono&quot;, monospace;"><tspan x="162">发送消息b</tspan></text><line x1="244" x2="152" y1="400" y2="400" stroke="#000000" fill="none" style="stroke-width: 2; stroke-dasharray: 6, 2; marker-end: url(&quot;#markerArrowBlock&quot;);"></line></g><g class="signal"><text x="54" y="431" style="font-size: 16px; font-family: &quot;Andale Mono&quot;, monospace;"><tspan x="54">发送消息b</tspan></text><line x1="152" x2="28" y1="436" y2="436" stroke="#000000" fill="none" style="stroke-width: 2; stroke-dasharray: 6, 2; marker-end: url(&quot;#markerArrowBlock&quot;);"></line></g></svg>